<?xml version="1.0" standalone="no"?>
<!DOCTYPE svg PUBLIC "-//W3C//DTD SVG 1.1//EN" "http://www.w3.org/Graphics/SVG/1.1/DTD/svg11.dtd">
<svg width="100%" height="100%" viewBox="0 0 156 156" version="1.1" xmlns="http://www.w3.org/2000/svg" xmlns:xlink="http://www.w3.org/1999/xlink" xml:space="preserve" style="fill-rule:evenodd;clip-rule:evenodd;stroke-linejoin:round;stroke-miterlimit:1.41421;">
    <g transform="matrix(1,0,0,1,0,1)">
        <path d="M107.11,146.88C145.532,130.964 163.779,86.913 147.862,48.498C131.952,10.073 87.905,-8.163 49.484,7.748C11.063,23.665 -7.179,67.71 8.738,106.13C24.649,144.55 68.694,162.79 107.112,146.88" style="fill:rgb(0,125,162);fill-rule:nonzero;"/>
    </g>
    <g transform="matrix(1,0,0,1,0,1)">
        <path d="M130.76,94.929C125.124,85.248 116.224,85.136 115.132,85.166L115.132,85.13L152.665,77.309L115.132,69.495L115.132,69.483C115.524,69.131 122.817,62.691 133.754,62.526C142.021,62.408 149.166,52.298 144.604,44.531C144.604,44.531 143.254,56.737 127.842,52.668C117.01,49.803 110.634,56.026 109.882,56.819C109.882,56.814 109.882,56.807 109.87,56.801L130.889,24.727L98.816,45.74C98.811,45.734 98.805,45.734 98.799,45.734C98.821,45.258 99.409,35.512 107.059,27.639C112.813,21.709 110.716,9.514 102.004,7.248C102.004,7.248 109.672,16.83 95.898,24.85C86.223,30.487 86.117,39.387 86.14,40.48L86.117,40.48L78.297,2.945L70.477,40.474C70.477,40.48 70.472,40.48 70.465,40.48C70.154,40.139 63.672,32.829 63.502,21.85C63.385,13.59 53.274,6.438 45.513,11.006C45.513,11.006 57.713,12.357 53.644,27.762C50.778,38.624 57.036,45 57.8,45.728C57.8,45.728 57.8,45.734 57.788,45.734L25.72,24.722L42.84,50.86L46.727,56.796C46.727,56.796 46.727,56.801 46.721,56.807C46.41,56.789 36.558,56.255 28.621,48.547C22.69,42.799 10.49,44.895 8.224,53.608C8.224,53.608 17.812,45.94 25.831,59.708C31.485,69.419 40.415,69.495 41.478,69.472C41.478,69.478 41.466,69.49 41.466,69.495L3.938,77.309L41.467,85.13L41.467,85.136C41.22,85.365 33.887,91.941 22.832,92.105C14.571,92.229 7.426,102.334 11.982,110.1C11.982,110.1 13.344,97.894 28.75,101.962C39.629,104.84 46,98.552 46.716,97.806C46.722,97.812 46.728,97.824 46.74,97.829L25.721,129.897L57.789,108.89C57.777,109.225 57.237,119.059 49.534,126.997C43.78,132.92 45.876,145.12 54.583,147.387C54.583,147.387 46.921,137.806 60.689,129.784C70.4,124.132 70.482,115.2 70.453,114.138C70.465,114.143 70.477,114.143 70.482,114.149L78.302,151.678L86.122,114.149L86.122,114.143C86.404,114.455 92.921,121.776 93.086,132.785C93.209,141.046 103.313,148.191 111.08,143.63C111.08,143.63 98.875,142.279 102.948,126.867C105.813,116.016 99.561,109.641 98.792,108.901C98.805,108.895 98.811,108.889 98.821,108.883L130.89,129.896L119.799,112.963L109.876,97.821C110.316,97.844 120.086,98.42 127.971,106.083C133.901,111.83 146.102,109.74 148.368,101.027C148.348,101.047 138.768,108.707 130.748,94.946" style="fill:rgb(250,192,21);fill-rule:nonzero;"/>
    </g>
</svg>
