<?xml version="1.0" standalone="no"?>
<!DOCTYPE svg PUBLIC "-//W3C//DTD SVG 20010904//EN"
 "http://www.w3.org/TR/2001/REC-SVG-20010904/DTD/svg10.dtd">
<svg version="1.0" xmlns="http://www.w3.org/2000/svg"
 width="1000.000000pt" height="1000.000000pt" viewBox="0 0 1000.000000 1000.000000"
 preserveAspectRatio="xMidYMid meet">

<g transform="translate(0.000000,1000.000000) scale(0.100000,-0.100000)"
fill="#000000" stroke="none">
<path d="M1 8878 c0 -948 2 -1116 14 -1081 24 77 71 136 283 345 169 169 219
212 266 234 108 49 229 49 334 -2 50 -23 258 -227 1618 -1588 1775 -1774 1619
-1602 1619 -1786 0 -184 156 -12 -1619 -1786 -1360 -1361 -1568 -1565 -1618
-1588 -105 -51 -226 -51 -334 -2 -47 22 -97 65 -266 234 -212 209 -259 268
-283 345 -12 35 -14 -133 -14 -1080 l-1 -1123 5000 0 5000 0 0 898 0 897 -25
-59 c-42 -104 -117 -177 -220 -215 l-56 -21 -2462 2 -2462 3 -57 27 c-79 37
-142 98 -181 177 l-32 66 0 350 0 350 32 66 c39 79 102 140 181 177 l57 27
2462 3 2462 2 56 -21 c103 -38 178 -111 220 -215 l25 -59 0 3773 0 3772 -5000
0 -5000 0 1 -1122z"/>
<path d="M0 5000 l0 -2605 24 58 c13 31 36 74 52 94 15 20 570 580 1232 1245
l1205 1208 -1205 1209 c-663 665 -1218 1225 -1233 1245 -15 19 -38 62 -51 93
l-24 58 0 -2605z"/>
</g>
</svg>
